# xmcd CD database file
#
# Track frame offsets:
#	150
#	22787
#	45270
#	62355
#	87258
#	115981
#	134641
#	156692
#
# Disc length: 2457 seconds
#
# Revision: 0
# Processed by: cddbd v1.5.2PL0 Copyright (c) Steve Scherf et al.
# Submitted via: CDex 1.70beta2
#
DISCID=61099708
DTITLE=Dona'm Jazz - Dona'm Jazz
DYEAR=2003
DGENRE=Jazz
TTITLE0=Love for sale (Arantxa Dominguez)
TTITLE1=Naima (Christina Blasco)
TTITLE2=Scrapple from the apple (Arantxa Dominguez y Ester Andujar)
TTITLE3=Eu sei que vou te amar (Pepa Blasco)
TTITLE4=You don't know what love is (Ester Andujar)
TTITLE5=Tarde em Itapoha (Pepa blasco y Christina Blasco)
TTITLE6=Stormy Weather (Arantxa Dominguez y Christina Blasco)
TTITLE7=àautumn Leaves (A Dominguez, C Blasco, P Blasco y E Andujar)
EXTD=YEAR: 2003
EXTT0=
EXTT1=
EXTT2=
EXTT3=
EXTT4=
EXTT5=
EXTT6=
EXTT7=
PLAYORDER=
